<?xml version="1.0" encoding="utf-8"?>
<!-- Generator: Adobe Illustrator 23.0.2, SVG Export Plug-In . SVG Version: 6.00 Build 0)  -->
<svg version="1.1" id="Layer_1" xmlns="http://www.w3.org/2000/svg" xmlns:xlink="http://www.w3.org/1999/xlink" x="0px" y="0px"
	 viewBox="0 0 371 157" style="enable-background:new 0 0 371 157;" xml:space="preserve">
<style type="text/css">
	.st0{fill:#A5A0A0;}
</style>
<g transform="translate(-274.91 -570.55)">
	<path class="st0" d="M512.6,570.5c-1.5,0-3,0.7-3.8,1.3h-0.1c-12.6,14.6-25.4,29.4-38,44c-0.9,0.7-1.5,1.9-2.5,2.6
		c-0.4-0.4-0.9-0.8-1.3-1.2l-0.1,0l-0.1-0.1c-5.1-5.1-11.8-5.3-15.8-8.8c-1.5-1.3-4.6-1.5-6.2-1.5c-0.5,0-0.9,0-1,0
		c-0.1,0-0.2,0.1-0.3,0.2c-0.2-0.1-0.4,0-0.7,0c-6.2,6.3-10.9,13.9-16.3,20.8c-0.5-0.4-1-0.8-1.5-1.2c-3.6-2.9-8-4.4-11.7-7.1
		c1.1-2-1.7,0.6-2,1.6c-2.7,2.6-4.4,7-6.6,9.8c-4.8,9.7-10.7,17.3-16.9,25.6c-0.6-1.1-1-2.1-1.4-2.9c-4.3-10.7-31.9-31.3-34.8-33.2
		c-0.5-0.3-1.3-0.4-2.1-0.4c-0.8,0-1.6,0.1-2.2,0.3c-0.1,0-0.1,0-0.2,0c-1.5,0-6.1,5.6-13.5,16.4c-6.2,9-18.4,20.6-35,33.4
		c-7.8,6-11.5,9.5-11.5,10.8c0,1.6-11.6,19.8-11.6,21.9c-0.6,1-0.9,1.8-0.9,2.3c0,0.4,5.3-4.5,11.8-10.9c3.8-3.8,5.2-1.2,9-5.2
		c1.1-1.1,4.2-1.1,5-2.6c4.1-7.8,10.2-15.2,16.6-20.8c2.7-2.4,5.7-3.7,8.3-5c-0.9,2.8-1.6,5.9-2,9.3c-1.6,12.1-1.2-1.7-3-4.9
		c-0.8-1.5-6.3,4.6-13.8,14.1c-1.3,1.7-2.2,6.4-3.7,8.1c-2.1,2.3-12.8,6-15.1,7.9c-6.8,5.9-5.1,8.5-5.8,8.5c-0.6,0,0.2,1,1.7,2.2
		c0.9,0.6,27-15,31.3-17.5c-17.2,10.4-26,18.7-23.4,18.2c7.2-1.3,12.6-1.5,15.4-2.5c3.6-1.2-0.8,5.5,7.1,2.6
		c5.8-2.1,8.1-19.5,9.6-22.7c0.5-1.1,1.5-6.9,2.3-12.9c1.1-8.4,1.7-10.6,2.7-9.4c0.8,1.1-1.4,9.1-2.9,17.1c-1.3,6.9-2.1,13.7-2,16.3
		c0.1,1.6-2.3,3.9-3.2,6.8c-1.3,4.2-1.3,8.8-0.3,8.8c1.1,0,9.7-13.4,9.1-7.6c-0.8,7.7-1.1,14.2-0.5,14.4c1.8,0.7,2.3-0.7,3-8
		c0.9-10.2,3-16.5,8.2-24.3c3.4-5.1,4-6.6,2.5-6.2c-1.1,0.3-3.3,2.4-5,4.9c-1.7,2.4-3.2,4.3-3.4,4.3c-0.2,0-0.1-3.5,0.1-7.8
		c0.5-10,3.4-25.8,0.5-29c-0.1-0.1-0.1-0.2-0.2-0.3c3.7-6.5,6.6-14.2,6.2-14.7c-1.7-1.7-9.9,15.6-21.5,23c-6.5,4.2-9.2,5.6-6.5,3.4
		c9.1-7.5,18.5-18.2,25.6-29c4-6.1,7.7-11.4,8.3-11.8c0.1-0.1,0.2-0.1,0.3,0c0.3,0.5,0.7,1,1.3,1.6c0.1,0.3,0.3,0.7,0.4,1.1
		c0.7,2.4,1,2.7,1,1.1c0.1,0.4,0.4,1.1,0.5,1.6c-0.2,0.2-0.3,3.7-0.3,9.6c0,8.6,0.2,12.1,0.5,7.8s0.3-11.3,0-15.6
		c-0.1-1-0.1-1.6-0.2-1.8c0.3,1,0.6,1.8,1.1,3.2c1.4,4.2,3.8,13.3,5.3,20.3c1.5,7,3.2,12.9,3.9,13.1c0.7,0.2,0.5-4.3-0.6-10.6
		l-1.8-11l2.4,5.2c2.3,4.9,4.8,11.3,7.3,18.3c0.3,1.1,0.7,2.1,1.1,3c8.6,24.2,17,53.8,14.5,54.1c-0.5,0.1-5.2-6.4-10.4-14.4
		c-11.2-17.1-22.8-28.4-21.7-23.8c-0.9,13.9-15.1,26.7-13.6,29.1c1.6,2.6,17.7-1.8,22.3,6c4.6,7.8,21.6,6,22.7,6.9
		c5.5,4.1,5.2-7.3-0.8-27.2c-2.4-8.1-5.3-16.6-8.2-24.9c1.6,0.8,3.5,1.1,5.8,0.8c0.8-0.1-6.1-19.4-4.1-19.8
		c1.6-0.3,12.1,18.4,12.8,18.1c1.4,1.5,3.8,5.7,5.4,9.2c3.1,6.8,13.3,24.7,14.6,25.4c0.4,0.2-1-2.7-3.1-6.5s-5.3-10.1-7-13.9l-3.2-7
		l3,1.6c1.7,0.9,19.1,23.9,19.7,23.5c1.3-1.1-20.8-33-28.8-47.6c0.9-0.9,1.7-1.8,2.7-2.5c2.9-2.6,6.5-6.2,9.7-10.1
		c1.6,1.1,24.4,16.7,28.5,23c1.7,2.5,3.4,5.2,5.3,6.2c7,3.2,7,18.3,14.1,19c0.8,0.3,8.9-14.1,9.8-13.6c0.3,0.3,0.5,0.7,0.7,1
		c-0.2-1-0.5-2.2-0.7-4.1c-0.7-1.1-10.1,10.4-11,10c-6.1-0.9-4-12.8-10-15c-2.6-0.5-5-3-7.2-6.2c-4.4-7.1-8.9-14.2-12.8-22.6
		c1.1,0.1,2.3,0,2.7-0.3c0.2-2.1-2.5-2.1-3.2-3.8c-2.5-4-1.8-8.9-2.7-13.3l0.3,0.2c2.6,3.9,8.6,9.5,10.8,11.7c4.8,4.8,8,5.8,9,4.7
		c1.8,2.5,3.5,5,4.8,7.8c1.5,1.1-2.2,3.9,0.8,3.9c1.3,0.3,3.6,0.9,4.3-0.6c-2-5.1-5.5-9.6-8.7-14.1c-2.1-2.7-4-5.7-6.2-8.3
		c-1-1.8-0.2-3.8,1.3-5c3.1-4.3,6.3-8.6,9.8-12.7c1.4-0.8,3.6-1,4.3-2.5c0.5,0.8,1.4,3.1,2.1,5.7c1.7,6.2,2.9,7.5,11.3,12.9
		c2.3,1.5,4.4,3.2,5.5,4.4c0.1,2.3,0.2,4.5,0.3,6.4c-0.3,0.9-0.6,1.9-0.9,3c-4.5,12.4-4.5,12.8-2.5,15.5c2.7,3.6,4.5,3.9,2.7,0.4
		c-1.7-3.3-1.9-4.2,0.3-9.8c0.6,1.4,1.4,2.8,2,4.2c1.9,3.6,4.5,6.8,7.7,9.4c0.5,1.3,1.2,3,2,4.8c5.3,11.4,12.9,24.7,15.7,27.7
		c1.4,1.5,3.8,3.3,5.2,3.9c2.5,1.1,2.4,0.9-0.3-5.7c-3.5-8.2-8.7-17.5-13.4-24.3c3.3,2.2,6.7,4.4,10.1,6.6c1.5,0.9,2.8,2,4.3,2.9
		c1.3,0.6,2.7-0.3,3-1.7c0.5-1.3,1.8-2,2.6-3.2c1.2-1.7,1.8-3.6,2.4-5.6c0.6-1.1,1.1-2.3,1.9-3.3c1.8-2.9,3.5-5.7,5.2-8.6
		c0.1,0,0.2-0.1,0.3-0.1c0.6-0.3,1-1.3,0.8-1.8c9.5-15.4,18.9-30.8,28.3-46.2c0.4-0.3,1.4-1.4,1.4-2.1c0.7-1.3,1.1-2.8,1.9-3.9
		c1.8-3.2,3.9-6,6.3-8.4c0.2-0.2,0.4-0.4,0.7-0.6c-3.7,6.7-6.6,12.9-10.6,19.7c-0.9,1.2-16.3,36.4-16.9,37.8
		c-0.4,4.4,7.2-3.2,11.3-10.5c-3,7.4-7.6,17.4-7.7,20.8c0,6.7,10.7-0.3,10.3,6.4c-0.3,1.5,1.2,0.3,1.4-0.5c0.6-1.5,0.4-3.2,0.7-4.8
		c0.4-2.9,0.5-5.8,1-8.7c0.7-2.3,2.4-4.3,2.8-6.7c1.1-4.1,2.2-8.2,3.3-12.3c-0.5,5.3-0.4,10.6,0.5,15.9c-0.8,2.3-1.7,4.5-2.5,6.8
		c-1.3,0.7,0.2,2.9,1.4,2.3c1.2-1.5,1.5-3.4,2-5.2c1,3.7,3,7.2,6.1,9.5c1.3,0.9,3.1,1.7,4.6,0.8c1.4-0.9,1-3.3-0.6-3.8
		c-1.3-0.9-1.6-2.7-1.2-4.1c0.5-3.1,0.1-6.4,1-9.4c0.6-3.1,2-5.9,3.2-8.8c0.5-1.4,2.2-2.1,3.5-1.1c1.1,0.9,2.1,2.2,3.7,2.1
		c1.9-0.1,3.1-1.9,3.5-3.6c1.2-4.7-0.4-9.6-2.6-13.8c-2.2-4.2-4.8-8.2-7.2-12.4c-1.9-6.4-3-12.6-3.6-11.9c0.3-0.5,0.7-1,1.1-1.5
		c2.3,6.1,3.7,16,7.3,17.5c2,0.8,4,1.8,5.9,2.8c1.5,1.6-0.5,3.3-1.7,4.2c-0.7,1.9,1.9,3,3.2,1.8c1.9-1,3.3-3.7,1.8-5.6
		c-2.2-3.2-5.1-7.4-8.5-9.1c-2.1-0.9,2-16.1-0.2-16.8c-2,0.9-6-8.2-4.8-10c0.4-0.8,3.9,1.1,8.2,4.1c-1.5-0.4-5.7-2.7-5.3-1.4
		c0.2,1.6,2.5,4.4,3.8,7.8c1.7,4.5,0.4,11.9,0.9,14c3,9.1,12,12.8,18.2,20.1c2.1,2.5,4.7,5,4.9,8.5c0.4,2.7,0.3,5.5,1.5,8
		c-0.4-2.8,0.6-5.5,0.4-8.3c0.2-4,0.4-8.4-2.3-11.7c-3.7-5.1-5.3-13.6-8.8-18.8c-2.2-3.3-3.5-7.5-5-11.5c1.2,1.1,2.4,2.2,3.5,3.3
		c5.6,5.6,8.9,15,9.5,16.9c0.9,0,11.6,8.5,23,17.6c-1.1-0.5-2.1-1-3.2-1.4l-0.1,0.3c-0.2,1.5-0.2,3.4-1.8,4.1
		c-1.7,0.7-3.2,1.7-4.7,2.8c-0.5,1.4,0.9,2.5,1.9,3.2c2.4,1.7,3.6,4.9,6.6,5.9c3.5,1.9,7.5,3.5,9.5,7.1c1,1.6,1.7,3.4,2.4,5.1
		c-0.3-2,1.5-3.7,0.8-5.7l-1-8.6c-1.1-1.3-0.9-3.1-1.3-4.7c-0.4-0.4-0.7-1-0.9-1.5c11.8,9.3,22.3,17.4,21.5,15
		c-0.7-2-57.8-55.3-60.1-58.5c-1.5-1.2-4.3-3.2-7.5-5.3l0,0c-0.2-0.3-0.5-0.5-1-0.6c-6.4-4.2-13.8-8.6-16.1-8.3
		c-0.4-0.2-0.6-0.3-0.8-0.2c-0.5,0.2-0.7,1.9-4.7,7.1c-1.2,1.6-2.8,3.6-4.5,5.5c-0.8,0.7-1.5,1.4-2.3,2.1c-1.1,1.1-2,2.5-2.9,3.9
		c-3.5,6.8,1.1-3.3-4.3,5.8c-0.1,0.5-0.2,1.1-0.3,1.6c-2,4.2-5.2,11.5-6.7,12.5c-2.1,1.8-4.6,6.4-7.1,7.7c-1.9-0.2,0.1,0.4-0.8,1.4
		c-2.4,6-4.2,10.2-7.5,15.8c-2.8,5.1-6.4,10-10,14.8c-2.3,1-4.9,1.6-7.4,1.2c-2.7-4.4-5.2-9-7.7-13.5c-3.6-5.3-8.8-9.1-13.2-13.8
		c-3.2-3.1-6.3-6.3-9.5-9.3c0.9-1.6,1.8-3.7,2.6-4.1c3.6-4.2,7.1-8.4,10.8-12.4c0,0.5-0.1,0.9-0.2,1.4c-0.1,1.6,0.8,3.2,1.9,3.4
		c-0.1,0.2-0.2,0.4-0.3,0.7c0.1-0.2,0.3-0.4,0.4-0.7c0,0,0.1,0,0.1,0c0.2,0-3.9,7.8-3.7,7.7l4.4-7.7c3.3-0.9,4.2,18.8,6.9,16.1
		c1.1-1.1,4-24.7,4.9-26c0.8-0.7,1.9-0.1,2.2,1.2c0.5,1.7,1.4,3.6,2.8,4c0.6,0.1,1.2,0.7,1.5,1.4c-0.6-1.3-0.3-3.1-1.1-4.3
		c-0.9-0.8-1.5-2.2-1.4-3.8c0-1.5,0.2-3,0.3-4.5c0.1-0.4,0.1-0.8,0.2-1.2c0.1-0.1,0.2-0.1,0.3-0.2c1.1-1.4,2.1-1.2,3-0.3
		c0.1,1.2,0.2,2.3,0.3,3.5c-0.2,5.1-0.7,10.2-1.2,15.3c-0.3,5.2-1.5,9.8-2.9,14.1c-0.3,1.2-1.1,2-1,3.6c0.1,0.5,0.4-0.1,0.5-0.4
		c1-2.4,1.9-4.9,2.8-7.6c1.5-4.9,3.9-8.8,4.9-14.3c0.4-3.4,1.1-6.5,1.8-9.6c3.8-2.4,12.5-11.6,13.4-9.8c4.6,9.3,1.4,4.3,9.8,12.6
		c3.5,5.8,0.9-1.3-0.2-3.8c-5.6-5.8,1,1.1-4.5-4.8c-4.4-10.2-11.2-17.2-15.7-19.7c-0.1-0.1-0.2-0.1-0.4-0.1
		C514.1,570.8,513.4,570.6,512.6,570.5L512.6,570.5z M593.1,612.4c-0.1,0-0.1,0.1,0.1,0.3C593.1,612.7,593.1,612.5,593.1,612.4z
		 M459.8,681.4C460.5,684.6,461.2,683.6,459.8,681.4z M515,572.3C515,572.3,515.1,572.3,515,572.3c3.2,3.9,11.6,12.6,10.8,12.4
		c-0.8-0.2-6.6-0.1-7.3-1.5c-0.7-1.3-3.3-1.6-4.2-3.7C513.5,577.7,514.9,574.1,515,572.3L515,572.3z M508.6,572.7c0,0,0.1,0,0.1,0.1
		C508.7,572.8,508.6,572.8,508.6,572.7L508.6,572.7L508.6,572.7z M505,578c-1.7,3.6-3.3,8-4.6,9.9c3-2,10.9-6.6,9-5.3
		c-3,2.2-9.6,6.2-12.7,8.4c-0.5-1.6,1-2.7,1.8-3.9C500.3,583.7,502.7,580.9,505,578L505,578z M500.4,587.9c-1.1,0.7-1.5,1.1-0.8,0.8
		C499.9,588.6,500.1,588.3,500.4,587.9z M556.7,592c0.6,0,1.2,0.3,1.7,0.8c0,0.1-0.1,0.2-0.1,0.2c-0.1,0.2-0.1,0.4-0.1,0.6
		C557.7,593.1,557.1,592.5,556.7,592L556.7,592z M497.3,593.3c-2.7,1.9-6.6,5.6-9.9,11.8c-0.2,0.3-0.3,0.6-0.4,0.8
		c-0.2-0.6-0.2-1.3,0.1-1.8c0.2-0.5,0.1-0.9-0.1-1.3c1-1,2-2.1,3.1-3.1c2.8-1.5,3.2-5.3,6.2-6.3C496.6,593.4,497,593.3,497.3,593.3
		L497.3,593.3z M499.7,593.4c0.3,0.1,0.5,0.2,0.7,0.3c-0.1,0.3-0.3,0.5-0.4,0.8c-0.8,1.4-1.7,2.1-2.7,2.7
		C498.4,595.6,499.2,594.4,499.7,593.4L499.7,593.4z M559.5,598.5c-0.2,0.6-0.3,2.3-0.4,5.6c-1.2,1.4-2.3,2.9-3.3,4.5
		c0.8-2.5,1.7-5.1,2.6-7.6C558.6,600.1,559,599.3,559.5,598.5z M560.1,609.5c-0.6,2-3.3,13.4-4.4,14.1c-0.3,1.9-0.1,4.1,1.5,5.3
		c0.5,0.7,6.3-5.9,6.1-5.8c-2.5,3.4-5.3,8.5-6.2,10.1c0-0.4-0.2-0.7-0.6-0.5c-2.1,1-2.6,3.5-3.4,5.5c0-0.4,0-0.7,0-1.1l0.8-9.5
		c-0.5-1.9,0.8-3.5,1.3-5.3C555.8,621.1,558.7,609.5,560.1,609.5L560.1,609.5z M448.2,612.1l4.8,1.4c-0.2,0.3-0.1,0.3,0.1,0l2.7,0.8
		c3.8,1.1,9.1,4,7.7,3.8l3.1,0.3c0.1,0.4,0.3,0.8,0.5,1.2c-0.3,0.2-0.5,0.5-0.8,0.9c-0.1-0.1-0.2-0.3-0.4-0.5
		c-1.3-1.7-5.4-1.9-6.8-2.5c-3.3-0.1-6.4-1.2-9.6-2.4l-0.1,0L448.2,612.1L448.2,612.1z M449.4,615c0,0,0,0,0.3,0c0.1,0,0.2,0,0.2,0
		C449.8,615,449.5,615,449.4,615z M451.2,614.7C451.2,614.7,451.1,614.8,451.2,614.7C451.3,614.8,451.3,614.7,451.2,614.7z
		 M450.7,619.3c0.9,0.3,1.8,0.1,2.7,0.1c1.4,3.4,4,7.1,9.1,7.8c0.3,1,1,3.1,1.8,2.1c0,0.3,0,0.6,0,1c-1.6-1.2-3.7-2.6-5.8-3.8
		C453.2,623.4,451.7,622.2,450.7,619.3L450.7,619.3z M578.5,622.2l1.2,5.1c-0.2-0.8-1.6-1.3-2.2-1.8c-0.9-0.7-0.6-0.9,0,2.6
		c0,2.8,1.4,4.7,1.1,7.4c-0.7,4.5-5,4.9-7.4,9c-1.9,2.5,1.4,13.9-1.4,13.3c-1.4-0.4-6.9-7.2-6.5-5.1c0.2,1.3,1.5,1.9,2.7,2.3
		c5.3,2.5-3.9,20.6-0.2,25.1c1.4,1.7,2.7,3.5,3.9,5.3c0.6,2.1-2,2.6-3.5,2.9c-1.5,1.4,0.3,3.6,2,3.1c2.2,0,4.7-1.8,4.2-4.2
		c-0.4-3.9-3.2-6.9-5.3-9.9c-1.4-1.7,10.6-17.7,9.1-19.3c-2.2-0.1-3.1-3.5-1.2-4.5c1.3-0.9,10.1,6.8,13.4,17.3
		c1.4,4.6,1.4,10,1.2,14c1.2-2.8,3.1-5.3,1.8-15.2c-0.3-2.5-9.5-13.2-10.5-20.8c-1.1-8.9,6.8-6.1,5.3-12.4
		c-2.4-10.1-4.7-8.4-5.4-9.4C580.5,626.8,578.9,622.3,578.5,622.2L578.5,622.2z M414.3,623.1c1.4,0.3,3,0.6,3.4,1
		c4.2,2.4,7,4.5,9.6,7.8c-3.1-2.3-7.3-4.6-12.5-6.7c0,0,0-0.1,0-0.1C414.6,624.4,414.5,623.7,414.3,623.1L414.3,623.1z M471.2,624.1
		c1.5,1.7,3,3.5,4.3,5.3l-1.5-1.1C473.5,627.9,472.4,626,471.2,624.1L471.2,624.1z M411.7,626.4c0-0.3,1.7,3.4,1.7,5.2
		c-0.6-1.5-1.2-3-1.8-4.4c0.1-0.1,0.1-0.3,0.2-0.4C411.7,626.6,411.7,626.4,411.7,626.4L411.7,626.4z M611.7,627.2
		C611.6,627.2,611.6,627.2,611.7,627.2C611.7,627.2,611.7,627.2,611.7,627.2z M411.5,627.4c0.7,2.8-2.2,7.6-5.2,11.5
		C408.8,634.9,409.6,630.8,411.5,627.4z M356.1,630.3c0.7,1,1.5,2.1,2.3,3.1c3.4,4.2,5,10.4,6.2,16.7
		C361.5,642.3,358.6,635.5,356.1,630.3L356.1,630.3z M478.4,634c0.4,0.7,0.7,1.4,1,2.2c-1.7,2.2-3.6,7.1-3,11.9
		c0.6,4.5,3.7,8.7,5.9,14.2c1.3,3.3-8.1-10.9-8-15.6c0-1.8,2.4-6.6,3.6-10.3C478.1,635.4,478.3,634.7,478.4,634z M587.9,634.5
		c-0.3-0.1-0.3,1.3,0.2,4.3c0.4,2.5,0.3,6.2-0.2,8.1c-1.3,4.4,1.5,10.7,3.8,8.8c0.8-0.6,1.3-2.5,1.2-4.3c-0.2-2.9,0-3.1,2.1-2.6
		c1.3,0.3,2.9,0.2,3.8-0.3c1.9-1.1,2-0.8,3.5,8.6c1,6.7,1,7.9-0.5,7.1c-1.7-0.9-1.8-0.8-1.6,0.9c0.1,1,1,2.7,2,3.8
		c1.2,1.3,2.3,1.6,3.2,0.8c1.6-1.3-0.2-17.3-2.6-23.3l-1.6-4.1l-2.3,2c-1.9,1.7-2.8,1.8-5,0.6c-2.2-1.2-2.9-2.2-4-6
		C588.9,636.1,588.2,634.6,587.9,634.5L587.9,634.5z M556.5,635.3c-0.9,3.7-1.7,7.4-2.8,11.1c-0.4,1.2-0.9,3.9-1.2,4.2
		c-0.2-1.8-0.1-3.6,0-5.4C553.7,641.8,555,638.5,556.5,635.3L556.5,635.3z M611.4,637.5c0,0,0.1,0,0.1,0c3.9,1.3,6.2,5,9.2,7.7
		c1.1,1.1,2.3,2.1,3.4,3.2c-1.5,0.6-2.3-1.4-3.4-2c-3.1-3-5.9-6.2-9.5-8.6C611.2,637.6,611.3,637.5,611.4,637.5L611.4,637.5z
		 M481.7,642.1c1,2.8,1.9,5.7,2.9,8.5c-1.1-1.8-2.1-3.6-2.4-5.1C481.9,644.4,481.8,643.2,481.7,642.1z M465.1,647.4
		c0,0.2,0,0.4,0.1,0.6c-0.1-0.1-0.1-0.2-0.2-0.3C465,647.5,465,647.5,465.1,647.4z M507.9,658.9c-1,1.4-2,2.7-3,4.1
		c-0.3-0.6-0.5-1.2-1-1.6c-0.2-0.4-0.5-0.8-0.7-1.1c0.5,0,1,0,1.5-0.1C505.8,659.8,506.9,659.4,507.9,658.9L507.9,658.9z
		 M305.4,672.7c0.4-0.2-0.7,0.8-3,2.8c-4.2,3.6-8.3,7.3-11.9,10.9c3.9-4.6,7.4-8.7,8.9-9.7C303.1,674.2,305,672.9,305.4,672.7
		L305.4,672.7z"/>
	<path class="st0" d="M584.6,648.3C584.4,648.5,584.9,648.1,584.6,648.3z"/>
</g>
</svg>
